<svg xmlns="http://www.w3.org/2000/svg"  viewBox="0 0 50 50" width="50px" height="50px"><path d="M 25 2 C 22.921875 2 21.039063 2.386719 19.578125 3.136719 C 18.121094 3.886719 17 5.128906 17 6.699219 C 17 8.457031 18.289063 9.820313 20 10.652344 L 20 13.113281 C 15.84375 13.617188 12.308594 14.628906 9.703125 15.988281 C 6.902344 17.445313 5 19.367188 5 21.699219 C 5 23.195313 5.945313 24.535156 7.359375 25.597656 C 8.761719 26.652344 10.695313 27.480469 13.03125 27.957031 L 13.011719 27.839844 C 13.015625 27.875 13.03125 27.925781 13.035156 27.960938 C 13.0625 27.964844 13.078125 27.976563 13.105469 27.980469 L 13.039063 27.96875 C 13.5625 31.652344 14.769531 36.539063 17.605469 40.621094 C 18.746094 42.265625 20.167969 43.761719 21.902344 44.980469 L 21.902344 45.097656 C 21.953125 45.097656 22.015625 45.09375 22.066406 45.09375 C 24.660156 46.863281 27.929688 48 32 48 C 35.429688 48 38.625 46.867188 40.507813 45.761719 L 43.671875 43.902344 L 39 43.902344 C 37.007813 43.902344 35.34375 44.148438 33.558594 43.058594 C 32.707031 42.425781 32.285156 41.625 32.125 40.570313 C 31.960938 39.5 32.109375 38.1875 32.480469 36.8125 C 33.21875 34.058594 34.828125 31.082031 36.046875 29.128906 L 36 29.199219 C 36.25 28.863281 36.511719 28.480469 36.75 28.066406 L 36.742188 28.070313 L 36.667969 28.085938 C 36.699219 28.082031 36.722656 28.066406 36.75 28.0625 C 36.796875 27.984375 36.851563 27.929688 36.894531 27.847656 L 36.792969 28.050781 C 39.210938 27.621094 41.191406 26.800781 42.613281 25.722656 C 44.066406 24.625 45 23.222656 45 21.699219 C 45 19.367188 43.097656 17.445313 40.296875 15.988281 C 37.691406 14.628906 34.15625 13.617188 30 13.113281 L 30 10.652344 C 31.710938 9.820313 33 8.457031 33 6.699219 C 33 5.128906 31.878906 3.886719 30.421875 3.136719 C 28.960938 2.386719 27.078125 2 25 2 Z M 25 4 C 26.820313 4 28.4375 4.363281 29.503906 4.914063 C 30.570313 5.464844 31 6.070313 31 6.699219 C 31 7.253906 30.511719 7.824219 29.800781 8.34375 L 29.578125 8.183594 C 27.914063 7.011719 25.617188 5.210938 25.617188 5.210938 L 24.96875 4.703125 L 24.34375 5.246094 C 24.34375 5.246094 22.03125 7.234375 20.492188 8.140625 L 20.171875 8.328125 C 19.476563 7.8125 19 7.25 19 6.699219 C 19 6.070313 19.429688 5.464844 20.496094 4.914063 C 21.5625 4.363281 23.179688 4 25 4 Z M 25 7.25 C 25.46875 7.613281 26.644531 8.515625 28 9.5 L 28 13.367188 L 25 14.792969 L 22 13.367188 L 22 9.492188 C 23.390625 8.574219 24.523438 7.65625 25 7.25 Z M 20.84375 15.042969 L 25 17.117188 L 29.15625 15.042969 C 33.382813 15.496094 36.949219 16.496094 39.375 17.761719 C 41.851563 19.054688 43 20.53125 43 21.699219 C 43 22.375 42.53125 23.273438 41.40625 24.125 C 40.347656 24.929688 38.734375 25.636719 36.699219 26.03125 L 36.699219 26 L 35 26 C 31.210938 26 28.414063 25.234375 26.125 24.03125 C 28.734375 22.386719 30.660156 21 33 21 L 33 19 L 16 19 L 16 21 L 27.160156 21 C 26.308594 21.527344 25.457031 22.097656 24.5625 22.648438 C 21.820313 24.339844 18.613281 25.953125 13.390625 25.992188 C 11.316406 25.5625 9.652344 24.820313 8.5625 24 C 7.457031 23.167969 7 22.304688 7 21.699219 C 7 20.53125 8.148438 19.054688 10.625 17.761719 C 13.050781 16.496094 16.617188 15.496094 20.84375 15.042969 Z M 24.144531 25.203125 C 26.785156 26.816406 30.082031 27.890625 34.414063 27.980469 C 34.410156 27.988281 34.40625 27.992188 34.402344 28 L 34.375 28.03125 L 34.351563 28.070313 C 33.070313 30.121094 31.378906 33.191406 30.546875 36.289063 C 30.128906 37.835938 29.921875 39.398438 30.148438 40.875 C 30.160156 40.953125 30.191406 41.03125 30.203125 41.109375 C 28.21875 42.605469 25.148438 43.011719 22.621094 43.070313 C 21.292969 42.054688 20.183594 40.828125 19.246094 39.480469 C 16.746094 35.882813 15.5625 31.386719 15.046875 27.925781 C 18.929688 27.640625 21.8125 26.488281 24.144531 25.203125 Z M 30.921875 43.066406 C 31.292969 43.6875 31.78125 44.25 32.410156 44.707031 L 32.441406 44.730469 L 32.472656 44.75 C 33.183594 45.1875 33.875 45.4375 34.558594 45.613281 C 33.707031 45.773438 32.886719 46 32 46 C 29.578125 46 27.519531 45.582031 25.75 44.859375 C 27.523438 44.609375 29.355469 44.101563 30.921875 43.066406 Z"/></svg>