<svg xmlns="http://www.w3.org/2000/svg" xmlns:xlink="http://www.w3.org/1999/xlink" viewBox="0,0,256,256" width="80px" height="80px" fill-rule="nonzero"><g fill-opacity="0" fill="#ffffff" fill-rule="nonzero" stroke="none" stroke-width="1" stroke-linecap="butt" stroke-linejoin="miter" stroke-miterlimit="10" stroke-dasharray="" stroke-dashoffset="0" font-family="none" font-weight="none" font-size="none" text-anchor="none" style="mix-blend-mode: normal"><path d="M0,256v-256h256v256z" id="bgRectangle"></path></g><g fill="none" fill-rule="nonzero" stroke="none" stroke-width="1" stroke-linecap="butt" stroke-linejoin="miter" stroke-miterlimit="10" stroke-dasharray="" stroke-dashoffset="0" font-family="none" font-weight="none" font-size="none" text-anchor="none" style="mix-blend-mode: normal"><g transform="scale(3.2,3.2)"><path d="M52,77.5c-16.4,0 -26.6,-10.9 -29.5,-31.6l-0.1,-0.4l-0.4,-0.1c-7.6,-1.4 -13.5,-7.3 -13.5,-11.4c0,-6.4 10.7,-12.1 25.4,-13.5l6.1,3.8l6.1,-3.8c14.7,1.4 25.4,7 25.4,13.5c0,3.9 -5.2,10.2 -13.6,11.5h-0.2l-0.4,0.6c-3.3,5.6 -11.2,18.7 -3.6,24.3c3.1,1.9 6.1,2.9 9,2.9c1.8,0 3.2,-0.4 4.4,-0.8c-2.6,2.2 -7.4,5 -15.1,5z" fill="#c2e8ff"></path><path d="M33.8,21l5.7,3.5l0.5,0.3l0.5,-0.3l5.7,-3.5c14.4,1.4 24.8,6.8 24.8,13c0,3.6 -5.1,9.8 -13.2,11l-0.5,0.1l-0.2,0.4l-0.2,0.4c-3.4,5.7 -11.4,19.1 -3.5,24.9v0v0c3.2,1.9 6.3,2.9 9.2,2.9c0.7,0 1.4,-0.1 2,-0.2c-2.6,1.9 -6.7,3.5 -12.6,3.5c-16.1,0 -26.1,-10.8 -29,-31.1l-0.1,-0.7l-0.7,-0.2c-7.4,-1.4 -13.2,-7.1 -13.2,-11c0,-6.2 10.4,-11.6 24.8,-13M46,20l-6,3.7l-6,-3.7c-14.4,1.3 -26,6.9 -26,14c0,4.5 6.2,10.5 14,12c1,6.9 5.1,32 30,32c13.2,0 18,-8 18,-8c0,0 -2.6,2.8 -7.3,2.8c-2.4,0 -5.3,-0.7 -8.7,-2.8c-7.3,-5.4 0.9,-18.7 4,-24c8.4,-1.3 14,-7.7 14,-12c0,-7.1 -11.6,-12.7 -26,-14z" fill="#7496c4"></path><path d="M46.7,77.1c-5.2,-0.9 -9.7,-3.1 -13.4,-6.5c4.8,-0.1 12.9,-0.7 17.3,-5.3c0.1,0.7 0.3,1.3 0.5,1.9c0.4,1.1 1,2 1.9,2.7l0.1,0.1c0.1,0 0.1,0.1 0.2,0.1l0.1,0.1c0.1,0.1 0.2,0.2 0.3,0.3c0.9,0.5 1.8,1 2.6,1.4c-2.1,2 -5.1,4.3 -9.6,5.2z" fill="#f78f8f"></path><path d="M50.3,66.3c0.1,0.4 0.2,0.7 0.3,1.1c0.4,1.2 1.1,2.2 2,2.9l0.1,0.1v0c0.1,0.1 0.1,0.1 0.2,0.2v0v0c0.1,0.1 0.2,0.2 0.4,0.3v0v0c0.7,0.4 1.3,0.8 2,1.1c-2,1.9 -4.8,3.8 -8.8,4.6c-4.5,-0.8 -8.5,-2.7 -11.9,-5.6c4.6,-0.2 11.5,-1 15.7,-4.7M51,64.1c-4.4,5.7 -14.2,5.9 -18.9,6c3.5,3.6 8.2,6.5 14.5,7.5c5,-1 8.3,-3.7 10.5,-5.9c-1,-0.4 -2.1,-0.9 -3.2,-1.6c-0.1,-0.1 -0.3,-0.2 -0.4,-0.3v0c-0.1,-0.1 -0.1,-0.1 -0.2,-0.2v0c-0.8,-0.7 -1.4,-1.5 -1.7,-2.5c-0.3,-1 -0.5,-2 -0.6,-3z" fill="#c74343"></path><path d="M22,46v-1c9.9,0 15.1,-4.3 19.8,-8.1c3.7,-3 7.2,-5.9 12.2,-5.9v1c-4.7,0 -7.9,2.6 -11.6,5.6c-4.8,4 -10.2,8.4 -20.4,8.4z" fill="#7496c4"></path><path d="M40.5,37.3c-0.3,-6.4 -2.9,-10.2 -4.3,-11.8h13.7c0.6,0.3 3.3,2.1 3.6,5c-5,0.2 -8.4,3 -12,5.9z" fill="#ffeea3"></path><path d="M49.7,26c0.6,0.4 2.7,1.8 3.2,4.1c-4.9,0.4 -8.3,3.2 -11.7,6l-0.3,0.2c-0.4,-5.1 -2.3,-8.4 -3.7,-10.3l12.5,0M50,25c0,0 -6.2,0 -15,0c0,0 5,4.1 5,13.3c0.2,-0.2 0.5,-0.3 0.7,-0.5c0.3,-0.2 0.5,-0.4 0.8,-0.6c3.7,-3 7.2,-6.1 12.3,-6.1c0.1,0 0.2,0 0.2,0c0,-4 -4,-6.1 -4,-6.1z" fill="#f5c276"></path><path d="M58,46h-1.7c-7.8,0 -12.3,-3.1 -16.7,-6l-0.4,-0.2l0.6,-0.8l0.4,0.2c4.2,2.8 8.6,5.8 16.1,5.8h1.7zM9,34h-1c0.1,-0.4 0.6,-10 18,-10c15.2,0 24,0 24,0v1c0,0 -8.8,0 -24,0c-15.9,0 -17,8.9 -17,9z" fill="#7496c4"></path><g fill="#c2e8ff"><path d="M34,20l6,3.7l6,-3.7c0,0 0,-7.5 0,-8c-2.8,-2 -6,-6 -6,-6c0,0 -3.3,4.1 -6,6c0,0.5 0,8 0,8z"></path></g><g><path d="M46.5,11.7l-0.2,-0.1c-2.7,-1.9 -5.9,-5.9 -5.9,-5.9l-0.4,-0.5l-0.4,0.5c0,0 -3.2,4 -5.9,5.9l-0.2,0.1v1.5c-1.5,-0.8 -3,-2.3 -3,-4.4c0,-3.6 4,-6.3 9.5,-6.3c5.5,0 9.5,2.6 9.5,6.3c0,2 -1.1,3.6 -3,4.5z" fill="#f78f8f"></path><path d="M40,3c5.1,0 9,2.5 9,5.8c0,1.8 -0.9,2.9 -2,3.6v-0.3v-0.1v-0.5l-0.4,-0.3c-2.7,-1.9 -5.8,-5.8 -5.8,-5.8l-0.8,-1l-0.8,1c0,0 -3.2,4 -5.8,5.8l-0.4,0.3v0.5v0.2v0.2c-1.1,-0.8 -2,-2 -2,-3.5c0,-3.4 3.9,-5.9 9,-5.9M40,2c-6,0 -10,3 -10,6.8c0,2.5 1.9,4.4 4,5.2c0,-0.9 0,-1.9 0,-2c2.7,-1.9 6,-6 6,-6c0,0 3.2,4 6,6c0,0.1 0,1.1 0,2c2.5,-0.9 4,-2.7 4,-5.2c0,-3.8 -4,-6.8 -10,-6.8z" fill="#c74343"></path></g><g><path d="M40,25.5c-0.3,0 -7.5,-0.1 -7.5,-7.5c0,-2 1.6,-5.1 1.9,-5.7l1.1,-0.9v6.6c0,1.8 2.4,2.5 4.5,2.5c2.1,0 4.5,-0.7 4.5,-2.5v-6.6l1.1,0.9c0.3,0.5 1.9,3.6 1.9,5.7c0,3.1 -1.2,5.3 -3.6,6.5c-1.9,1 -3.8,1 -3.9,1z" fill="#839cb2"></path><path d="M45,12.5l0.2,0.2c0.6,1.1 1.8,3.7 1.8,5.4c0,6.8 -6.3,7 -7,7c-0.7,0 -7,-0.2 -7,-7c0,-1.6 1.2,-4.3 1.8,-5.4l0.2,-0.2v5.5c0,2.2 2.6,3 5,3c2.4,0 5,-0.8 5,-3v-5.5M44,10.3c0,0 0,7.6 0,7.7c0,2 -3.8,2 -4,2c-0.2,0 -4,0 -4,-2c0,-0.2 0,-7.7 0,-7.7l-2,1.7c0,0 -2,3.6 -2,6c0,7.9 7.6,8 8,8v0v0c0.4,0 8,-0.1 8,-8c0,-2.4 -2,-6 -2,-6l-2,-1.7z" fill="#66798f"></path></g></g></g></svg>